<svg width="512" height="136" viewBox="0 0 512 136" fill="none" xmlns="http://www.w3.org/2000/svg">
<g clip-path="url(#clip0_903_6011)">
<path d="M408.156 32.1537H399.547L387.131 80.7939H416.59L418.259 74.2344H397.409L408.156 32.1537Z" fill="#003671"/>
<path d="M390.41 32.1537H382.65L370.234 80.7939H378.843L391.26 32.1537H390.41Z" fill="#003671"/>
<path d="M355.534 51.9202C350.526 49.4897 346.221 47.4106 347.275 43.1351C348.828 37.2783 355.211 36.6927 357.144 36.6927C359.204 36.4252 361.277 37.0909 362.796 38.5083C363.736 40.3279 363.833 42.4683 363.059 44.365L362.825 45.1849H371.61V44.7164C373.088 41.3143 372.826 37.4073 370.907 34.2328C368.857 31.451 364.758 30.0453 358.784 30.0453C348.183 30.0453 340.277 35.1407 338.285 43.3693C336.294 51.598 343.176 54.9365 349.325 58.0112C354.45 60.5296 358.872 62.6673 357.788 67.0013C356.265 72.858 350.702 74.1758 346.309 74.1758C344.038 74.3964 341.788 73.5784 340.189 71.9503C339.152 70.3373 338.935 68.33 339.603 66.5328L340.16 64.3365H331.667V64.805C330.994 67.1476 329.412 72.5651 332.341 76.5185C334.537 79.4469 338.812 80.8525 345.05 80.7939C356.763 80.7939 364.436 75.9328 366.661 67.1184C368.887 58.3041 361.8 54.9657 355.534 51.9202Z" fill="#003671"/>
<path d="M320.012 32.1537H310.407L279.513 80.7939H288.298L295.414 69.5197H316.381L317.611 80.7939H327.07L320.481 32.1537H320.012ZM315.737 62.9602H299.484L313.336 40.1774C313.629 43.1058 315.591 61.6717 315.737 62.9602Z" fill="#003671"/>
<path d="M285.194 44.7749C285.498 43.6382 285.656 42.4671 285.663 41.2902C285.712 39.3959 285.147 37.5367 284.052 35.9898C281.497 33.2444 277.795 31.8659 274.066 32.2708H253.831L241.444 80.7939H250.054L255.588 59.0361H263.553C265.586 58.8485 267.613 59.4574 269.205 60.7345C269.98 61.7523 270.24 63.0718 269.908 64.3071L268.912 69.6661C267.795 73.1245 267.534 76.8024 268.151 80.3839V80.7939H276.936V80.0618C276.936 79.6811 276.936 79.2419 276.936 78.744C277.072 75.0954 277.493 71.4629 278.195 67.8798C278.662 65.9008 278.927 63.8797 278.986 61.8474C279.076 60.3945 278.708 58.95 277.932 57.7184C276.878 56.4961 275.426 55.6869 273.832 55.4343C279.285 54.2284 283.643 50.1398 285.194 44.7749ZM260.772 38.7133H271.197C272.898 38.5407 274.58 39.1812 275.736 40.4409C276.35 41.2889 276.65 42.3243 276.585 43.3693C276.575 43.991 276.497 44.6099 276.351 45.2141C275.391 49.4748 271.639 52.5246 267.273 52.5936H257.257C257.697 51.0416 260.625 39.5918 260.772 38.7133Z" fill="#003671"/>
<path d="M241.034 63.3702C241.086 61.7284 240.626 60.1113 239.717 58.7433C238.039 56.8015 235.681 55.5756 233.128 55.3171C238.833 54.2368 243.321 49.8183 244.49 44.1307C244.673 43.3437 244.762 42.5376 244.753 41.7294C244.775 40.2163 244.434 38.7201 243.758 37.3662C241.971 34.145 239.336 32.1537 231.751 32.1537H212.746L200.33 80.7939H219.452C231.166 80.7939 238.223 76.1671 240.536 67.0013C240.861 65.818 241.028 64.5971 241.034 63.3702ZM235.646 45.0386C234.603 49.4593 230.479 52.4493 225.953 52.0667H216.26C216.7 50.6317 219.452 39.5918 219.628 38.7133H229.321C231.475 38.4404 233.636 39.175 235.178 40.7046C235.979 42.0047 236.151 43.5971 235.646 45.0386ZM219.979 74.3223H210.609C210.989 72.8873 214.357 59.6805 214.591 58.7433H221.795C225.368 58.7433 229.672 59.0068 231.371 61.2032C231.991 62.0494 232.301 63.0835 232.249 64.1316C232.238 65.0326 232.11 65.9283 231.869 66.7963C230.931 70.3105 226.832 74.2344 219.979 74.2344V74.3223Z" fill="#003671"/>
<path d="M130.576 59.0362C122.259 59.0362 121 56.1078 122.435 49.5189C123.87 42.93 134.705 0.849426 134.705 0.849426H109.843C109.843 0.849426 98.774 41.8466 96.6362 52.0959C93.5615 66.2107 100.794 80.6476 122.992 80.7647C137.077 80.7647 175.702 80.7647 175.702 80.7647L181.559 59.0362H130.576Z" fill="#003671"/>
<path d="M94.3229 17.2191L98.7154 0.849426H41.6707C29.2837 0.849426 20.7914 7.58468 14.6419 17.2191H94.3229Z" fill="url(#paint0_linear_903_6011)"/>
<path d="M67.6161 30.6017H11.1278C11.8599 40.236 20.9086 48.8454 34.9647 48.8454H58.1575H58.7431H59.1824C61.3356 49.4326 62.6326 51.6244 62.1107 53.7943C61.793 55.5659 60.7254 57.1139 59.1824 58.0406C57.7914 58.6561 56.2813 58.956 54.7605 58.919H5.85675L0 80.7647H53.0035C75.6105 81.4674 85.2156 69.6662 87.9098 55.7564C90.4574 42.4908 84.3664 30.6017 67.6161 30.6017Z" fill="#003671"/>
<path d="M425.199 104.197L418.202 127.047H424.11L431.108 104.197H430.676H425.199Z" fill="#15366F"/>
<path d="M434.359 94.6181H433.927H427.815L426.455 99.061H432.999L434.359 94.6181Z" fill="#15366F"/>
<path d="M382.694 115.254C380.829 121.335 379.119 124.049 373.898 124.049C372.35 124.049 371.231 123.691 370.574 122.985C369.099 121.405 370.066 118.238 370.533 116.717L370.765 115.937C371.773 112.517 373.298 107.348 378.995 107.348C380.803 107.348 382.084 107.74 382.807 108.516C384.274 110.088 383.362 113.073 382.694 115.253V115.254ZM381.554 103.832C378.476 103.832 376.013 104.7 373.657 106.517C373.894 105.745 374.343 104.273 374.343 104.273H368.436L358.855 135.554H364.764C364.764 135.554 367.752 125.795 367.978 125.059C369.324 126.721 371.347 127.564 374.202 127.564C385.086 127.564 387.24 120.53 388.813 115.393C390.212 110.824 390.055 107.706 388.337 105.863C386.636 104.042 383.653 103.832 381.554 103.832" fill="#15366F"/>
<path d="M398.104 115.756C399.97 109.674 401.68 106.961 406.901 106.961C408.449 106.961 409.567 107.319 410.225 108.025C411.7 109.605 410.733 112.771 410.266 114.293L410.034 115.073C409.026 118.493 407.501 123.662 401.803 123.662C399.995 123.662 398.715 123.27 397.992 122.494C396.524 120.922 397.436 117.937 398.104 115.757V115.756ZM399.244 127.178C402.322 127.178 404.786 126.31 407.141 124.493C406.905 125.265 406.456 126.737 406.456 126.737H412.362L421.944 95.4558H416.035C416.035 95.4558 413.046 105.215 412.821 105.951C411.475 104.289 409.452 103.446 406.597 103.446C395.713 103.446 393.559 110.48 391.986 115.617C390.587 120.186 390.744 123.303 392.462 125.147C394.163 126.968 397.145 127.178 399.244 127.178" fill="#15366F"/>
<path d="M457.081 101.446C455.549 100.821 448.125 101.971 434.808 104.895C442.928 98.6237 446.477 94.98 445.457 93.9642C441.198 89.7247 438.692 84.5417 438.692 78.9477C438.692 64.6268 455.113 53 475.339 53C495.565 53 511.986 64.6268 511.986 78.9477C511.986 93.2686 495.565 104.895 475.339 104.895C468.693 104.895 462.458 103.64 457.081 101.446Z" fill="#023872"/>
<mask id="mask0_903_6011" style="mask-type:alpha" maskUnits="userSpaceOnUse" x="485" y="72" width="14" height="14">
<path d="M491.1 73.3311L489.517 76.4107L485.979 76.905C485.288 77.0013 485.012 77.8177 485.512 78.286L488.072 80.6833L487.467 84.0682C487.35 84.73 488.072 85.2345 488.691 84.922L491.855 83.3237L495.019 84.922C495.638 85.2345 496.36 84.73 496.243 84.0682L495.639 80.6833L498.199 78.286C498.699 77.8177 498.423 77.0013 497.731 76.905L494.194 76.4107L492.611 73.3311C492.302 72.7289 491.409 72.7289 491.1 73.3311Z" fill="white"/>
</mask>
<g mask="url(#mask0_903_6011)">
<path d="M491.1 73.3311L489.517 76.4107L485.979 76.905C485.288 77.0013 485.012 77.8177 485.512 78.286L488.072 80.6833L487.467 84.0682C487.35 84.73 488.072 85.2345 488.691 84.922L491.855 83.3237L495.019 84.922C495.638 85.2345 496.36 84.73 496.243 84.0682L495.639 80.6833L498.199 78.286C498.699 77.8177 498.423 77.0013 497.731 76.905L494.194 76.4107L492.611 73.3311C492.302 72.7289 491.409 72.7289 491.1 73.3311Z" fill="#FF9E6E"/>
<path d="M491.1 73.3311L489.517 76.4107L485.979 76.905C485.288 77.0013 485.012 77.8177 485.512 78.286L488.072 80.6833L487.467 84.0682C487.35 84.73 488.072 85.2345 488.691 84.922L491.855 83.3237L495.019 84.922C495.638 85.2345 496.36 84.73 496.243 84.0682L495.639 80.6833L498.199 78.286C498.699 77.8177 498.423 77.0013 497.731 76.905L494.194 76.4107L492.611 73.3311C492.302 72.7289 491.409 72.7289 491.1 73.3311Z" fill="#FF9E6E"/>
</g>
<mask id="mask1_903_6011" style="mask-type:alpha" maskUnits="userSpaceOnUse" x="468" y="72" width="14" height="14">
<path d="M473.971 73.3311L472.388 76.4107L468.851 76.905C468.16 77.0013 467.883 77.8177 468.384 78.286L470.944 80.6833L470.34 84.0682C470.221 84.73 470.944 85.2345 471.562 84.922L474.727 83.3237L477.891 84.922C478.51 85.2345 479.232 84.73 479.115 84.0682L478.511 80.6833L481.07 78.286C481.571 77.8177 481.294 77.0013 480.603 76.905L477.065 76.4107L475.483 73.3311C475.174 72.7289 474.28 72.7289 473.971 73.3311Z" fill="white"/>
</mask>
<g mask="url(#mask1_903_6011)">
<path d="M473.971 73.3311L472.388 76.4107L468.851 76.905C468.16 77.0013 467.883 77.8177 468.384 78.286L470.944 80.6833L470.34 84.0682C470.221 84.73 470.944 85.2345 471.562 84.922L474.727 83.3237L477.891 84.922C478.51 85.2345 479.232 84.73 479.115 84.0682L478.511 80.6833L481.07 78.286C481.571 77.8177 481.294 77.0013 480.603 76.905L477.065 76.4107L475.483 73.3311C475.174 72.7289 474.28 72.7289 473.971 73.3311Z" fill="#FF9E6E"/>
<path d="M473.971 73.3311L472.388 76.4107L468.851 76.905C468.16 77.0013 467.883 77.8177 468.384 78.286L470.944 80.6833L470.34 84.0682C470.221 84.73 470.944 85.2345 471.562 84.922L474.727 83.3237L477.891 84.922C478.51 85.2345 479.232 84.73 479.115 84.0682L478.511 80.6833L481.07 78.286C481.571 77.8177 481.294 77.0013 480.603 76.905L477.065 76.4107L475.483 73.3311C475.174 72.7289 474.28 72.7289 473.971 73.3311Z" fill="#FF9E6E"/>
</g>
<mask id="mask2_903_6011" style="mask-type:alpha" maskUnits="userSpaceOnUse" x="451" y="72" width="14" height="14">
<path d="M456.843 73.3311L455.261 76.4107L451.722 76.905C451.031 77.0013 450.755 77.8177 451.255 78.286L453.816 80.6833L453.211 84.0682C453.093 84.73 453.816 85.2345 454.434 84.922L457.598 83.3237L460.763 84.922C461.381 85.2345 462.104 84.73 461.987 84.0682L461.382 80.6833L463.942 78.286C464.442 77.8177 464.166 77.0013 463.475 76.905L459.937 76.4107L458.355 73.3311C458.046 72.7289 457.152 72.7289 456.843 73.3311Z" fill="white"/>
</mask>
<g mask="url(#mask2_903_6011)">
<path d="M456.843 73.3311L455.261 76.4107L451.722 76.905C451.031 77.0013 450.755 77.8177 451.255 78.286L453.816 80.6833L453.211 84.0682C453.093 84.73 453.816 85.2345 454.434 84.922L457.598 83.3237L460.763 84.922C461.381 85.2345 462.104 84.73 461.987 84.0682L461.382 80.6833L463.942 78.286C464.442 77.8177 464.166 77.0013 463.475 76.905L459.937 76.4107L458.355 73.3311C458.046 72.7289 457.152 72.7289 456.843 73.3311Z" fill="#FF9E6E"/>
<path d="M456.843 73.3311L455.261 76.4107L451.722 76.905C451.031 77.0013 450.755 77.8177 451.255 78.286L453.816 80.6833L453.211 84.0682C453.093 84.73 453.816 85.2345 454.434 84.922L457.598 83.3237L460.763 84.922C461.381 85.2345 462.104 84.73 461.987 84.0682L461.382 80.6833L463.942 78.286C464.442 77.8177 464.166 77.0013 463.475 76.905L459.937 76.4107L458.355 73.3311C458.046 72.7289 457.152 72.7289 456.843 73.3311Z" fill="#FF9E6E"/>
</g>
</g>
<defs>
<linearGradient id="paint0_linear_903_6011" x1="14.7584" y1="9.02029" x2="95.1424" y2="9.02029" gradientUnits="userSpaceOnUse">
<stop offset="0.01" stop-color="#0096DC"/>
<stop offset="0.74" stop-color="#003671"/>
</linearGradient>
<clipPath id="clip0_903_6011">
<rect width="511.986" height="134.705" fill="white" transform="translate(0 0.849426)"/>
</clipPath>
</defs>
</svg>
