<svg width="505" height="273" viewBox="0 0 505 273" fill="none" xmlns="http://www.w3.org/2000/svg">
<g clip-path="url(#clip0_903_5937)">
<path d="M218.791 169.589L195.717 244.944H215.2L238.279 169.589H236.855H218.791Z" fill="#15366F"/>
<path d="M249 138H247.576H227.42L222.935 152.652H244.515L249 138Z" fill="#15366F"/>
<path d="M78.6183 206.054C72.466 226.109 66.8267 235.059 49.608 235.059C44.5039 235.059 40.8152 233.877 38.6479 231.549C33.7827 226.338 36.9716 215.896 38.5108 210.879L39.276 208.305C42.6021 197.027 47.631 179.981 66.4198 179.981C72.3819 179.981 76.6059 181.274 78.9898 183.834C83.8286 189.016 80.821 198.861 78.6183 206.051V206.054ZM74.8588 168.386C64.7081 168.386 56.5831 171.248 48.8163 177.241C49.5948 174.696 51.0765 169.841 51.0765 169.841H31.5977L0 273H19.4876C19.4876 273 29.342 240.816 30.0851 238.389C34.5257 243.87 41.1956 246.65 50.6121 246.65C86.5045 246.65 93.6078 223.454 98.7959 206.511C103.409 191.443 102.892 181.163 97.2258 175.082C91.6174 169.079 81.7807 168.386 74.8588 168.386Z" fill="#15366F"/>
<path d="M129.438 207.708C135.591 187.653 141.23 178.703 158.449 178.703C163.553 178.703 167.241 179.885 169.409 182.213C174.274 187.425 171.085 197.867 169.546 202.883L168.781 205.458C165.454 216.736 160.426 233.781 141.637 233.781C135.675 233.781 131.451 232.489 129.067 229.929C124.228 224.747 127.236 214.901 129.438 207.712V207.708ZM133.198 245.376C143.348 245.376 151.473 242.514 159.24 236.522C158.462 239.067 156.98 243.921 156.98 243.921H176.459L208.057 140.762H188.569C188.569 140.762 178.715 172.946 177.971 175.373C173.531 169.893 166.861 167.112 157.444 167.112C121.552 167.112 114.449 190.309 109.261 207.251C104.647 222.319 105.165 232.599 110.831 238.68C116.439 244.684 126.276 245.376 133.198 245.376Z" fill="#15366F"/>
<path d="M325.014 159.588C319.994 157.54 295.656 161.309 252 170.895C278.619 150.336 290.255 138.392 286.91 135.062C272.948 121.164 264.734 104.174 264.734 85.8356C264.734 38.8899 318.564 0.775879 384.867 0.775879C451.17 0.775879 505 38.8899 505 85.8356C505 132.781 451.17 170.895 384.867 170.895C363.08 170.895 342.64 166.78 325.014 159.588Z" fill="#023872"/>
<mask id="mask0_903_5937" style="mask-type:alpha" maskUnits="userSpaceOnUse" x="417" y="65" width="44" height="41">
<path d="M436.533 67.4236L431.343 77.5191L419.746 79.1392C417.481 79.4551 416.576 82.1313 418.216 83.6665L426.608 91.525L424.626 102.621C424.24 104.791 426.608 106.444 428.637 105.42L439.009 100.181L449.381 105.42C451.41 106.444 453.778 104.791 453.394 102.621L451.412 91.525L459.804 83.6665C461.444 82.1313 460.539 79.4551 458.272 79.1392L446.675 77.5191L441.488 67.4236C440.475 65.4496 437.546 65.4496 436.533 67.4236Z" fill="white"/>
</mask>
<g mask="url(#mask0_903_5937)">
<path d="M436.533 67.4236L431.343 77.5191L419.746 79.1392C417.481 79.4551 416.576 82.1313 418.216 83.6665L426.608 91.525L424.626 102.621C424.24 104.791 426.608 106.444 428.637 105.42L439.009 100.181L449.381 105.42C451.41 106.444 453.778 104.791 453.394 102.621L451.412 91.525L459.804 83.6665C461.444 82.1313 460.539 79.4551 458.272 79.1392L446.675 77.5191L441.488 67.4236C440.475 65.4496 437.546 65.4496 436.533 67.4236Z" fill="#FF9E6E"/>
<path d="M436.533 67.4236L431.343 77.5191L419.746 79.1392C417.481 79.4551 416.576 82.1313 418.216 83.6665L426.608 91.525L424.626 102.621C424.24 104.791 426.608 106.444 428.637 105.42L439.009 100.181L449.381 105.42C451.41 106.444 453.778 104.791 453.394 102.621L451.412 91.525L459.804 83.6665C461.444 82.1313 460.539 79.4551 458.272 79.1392L446.675 77.5191L441.488 67.4236C440.475 65.4496 437.546 65.4496 436.533 67.4236Z" fill="#FF9E6E"/>
</g>
<mask id="mask1_903_5937" style="mask-type:alpha" maskUnits="userSpaceOnUse" x="361" y="65" width="44" height="41">
<path d="M380.382 67.4236L375.195 77.5191L363.598 79.1392C361.333 79.4551 360.426 82.1313 362.068 83.6665L370.458 91.525L368.478 102.621C368.09 104.791 370.458 106.444 372.487 105.42L382.861 100.181L393.233 105.42C395.262 106.444 397.63 104.791 397.244 102.621L395.264 91.525L403.654 83.6665C405.296 82.1313 404.389 79.4551 402.122 79.1392L390.525 77.5191L385.34 67.4236C384.327 65.4496 381.395 65.4496 380.382 67.4236Z" fill="white"/>
</mask>
<g mask="url(#mask1_903_5937)">
<path d="M380.382 67.4236L375.195 77.5191L363.598 79.1392C361.333 79.4551 360.426 82.1313 362.068 83.6665L370.458 91.525L368.478 102.621C368.09 104.791 370.458 106.444 372.487 105.42L382.861 100.181L393.233 105.42C395.262 106.444 397.63 104.791 397.244 102.621L395.264 91.525L403.654 83.6665C405.296 82.1313 404.389 79.4551 402.122 79.1392L390.525 77.5191L385.34 67.4236C384.327 65.4496 381.395 65.4496 380.382 67.4236Z" fill="#FF9E6E"/>
<path d="M380.382 67.4236L375.195 77.5191L363.598 79.1392C361.333 79.4551 360.426 82.1313 362.068 83.6665L370.458 91.525L368.478 102.621C368.09 104.791 370.458 106.444 372.487 105.42L382.861 100.181L393.233 105.42C395.262 106.444 397.63 104.791 397.244 102.621L395.264 91.525L403.654 83.6665C405.296 82.1313 404.389 79.4551 402.122 79.1392L390.525 77.5191L385.34 67.4236C384.327 65.4496 381.395 65.4496 380.382 67.4236Z" fill="#FF9E6E"/>
</g>
<mask id="mask2_903_5937" style="mask-type:alpha" maskUnits="userSpaceOnUse" x="305" y="65" width="44" height="41">
<path d="M324.235 67.4236L319.048 77.5191L307.448 79.1392C305.183 79.4551 304.278 82.1313 305.918 83.6665L314.311 91.525L312.329 102.621C311.942 104.791 314.313 106.444 316.339 105.42L326.712 100.181L337.086 105.42C339.112 106.444 341.481 104.791 341.096 102.621L339.114 91.525L347.507 83.6665C349.147 82.1313 348.242 79.4551 345.975 79.1392L334.377 77.5191L329.19 67.4236C328.177 65.4496 325.248 65.4496 324.235 67.4236Z" fill="white"/>
</mask>
<g mask="url(#mask2_903_5937)">
<path d="M324.235 67.4236L319.048 77.5191L307.448 79.1392C305.183 79.4551 304.278 82.1313 305.918 83.6665L314.311 91.525L312.329 102.621C311.942 104.791 314.313 106.444 316.339 105.42L326.712 100.181L337.086 105.42C339.112 106.444 341.481 104.791 341.096 102.621L339.114 91.525L347.507 83.6665C349.147 82.1313 348.242 79.4551 345.975 79.1392L334.377 77.5191L329.19 67.4236C328.177 65.4496 325.248 65.4496 324.235 67.4236Z" fill="#FF9E6E"/>
<path d="M324.235 67.4236L319.048 77.5191L307.448 79.1392C305.183 79.4551 304.278 82.1313 305.918 83.6665L314.311 91.525L312.329 102.621C311.942 104.791 314.313 106.444 316.339 105.42L326.712 100.181L337.086 105.42C339.112 106.444 341.481 104.791 341.096 102.621L339.114 91.525L347.507 83.6665C349.147 82.1313 348.242 79.4551 345.975 79.1392L334.377 77.5191L329.19 67.4236C328.177 65.4496 325.248 65.4496 324.235 67.4236Z" fill="#FF9E6E"/>
</g>
</g>
<defs>
<clipPath id="clip0_903_5937">
<rect width="505" height="272.25" fill="white" transform="translate(0 0.750366)"/>
</clipPath>
</defs>
</svg>
