<svg width="393" height="76" viewBox="0 0 393 76" fill="none" xmlns="http://www.w3.org/2000/svg">
<path d="M383.077 30.0988H374.997L363.343 75.7504H390.993L392.559 69.5939H372.99L383.077 30.0988Z" fill="#003671"/>
<path d="M366.422 30.0988H359.138L347.485 75.7504H355.565L367.219 30.0988H366.422Z" fill="#003671"/>
<path d="M333.688 48.6508C328.988 46.3695 324.948 44.4182 325.937 40.4054C327.394 34.9085 333.385 34.3589 335.199 34.3589C337.133 34.1079 339.078 34.7326 340.504 36.0629C341.387 37.7707 341.477 39.7796 340.751 41.5598L340.531 42.3294H348.777V41.8897C350.163 38.6965 349.918 35.0295 348.117 32.0501C346.193 29.4391 342.345 28.1199 336.739 28.1199C326.789 28.1199 319.368 32.9022 317.499 40.6253C315.631 48.3484 322.089 51.4816 327.861 54.3675C332.671 56.7311 336.821 58.7375 335.804 62.8053C334.375 68.302 329.153 69.5389 325.03 69.5389C322.898 69.7459 320.787 68.9782 319.286 67.45C318.313 65.9363 318.109 64.0524 318.736 62.3655L319.258 60.3042H311.288V60.7439C310.656 62.9427 309.172 68.0273 311.92 71.7376C313.981 74.486 317.994 75.8053 323.848 75.7504C334.842 75.7504 342.043 71.1879 344.132 62.9151C346.221 54.6424 339.569 51.5091 333.688 48.6508Z" fill="#003671"/>
<path d="M300.349 30.0988H291.334L262.338 75.7504H270.584L277.262 65.1689H296.941L298.096 75.7504H306.973L300.789 30.0988H300.349ZM296.336 59.0124H281.083L294.083 37.6295C294.358 40.378 296.199 57.803 296.336 59.0124Z" fill="#003671"/>
<path d="M267.67 41.9445C267.956 40.8776 268.103 39.7784 268.11 38.6739C268.156 36.896 267.625 35.151 266.598 33.6992C264.2 31.1225 260.726 29.8287 257.226 30.2087H238.234L226.609 75.7504H234.689L239.883 55.3295H247.359C249.267 55.1533 251.169 55.7249 252.664 56.9235C253.391 57.8788 253.635 59.1171 253.323 60.2766L252.389 65.3063C251.34 68.5522 251.095 72.004 251.674 75.3655V75.7504H259.92V75.0632C259.92 74.7059 259.92 74.2936 259.92 73.8264C260.047 70.4019 260.442 66.9926 261.101 63.6298C261.539 61.7724 261.788 59.8754 261.843 57.968C261.928 56.6044 261.582 55.2486 260.854 54.0926C259.865 52.9455 258.502 52.186 257.006 51.9488C262.124 50.8171 266.214 46.9796 267.67 41.9445ZM244.748 36.2552H254.533C256.129 36.0934 257.708 36.6945 258.793 37.8769C259.369 38.6728 259.651 39.6444 259.59 40.6252C259.581 41.2089 259.507 41.7896 259.37 42.3569C258.469 46.3556 254.948 49.218 250.85 49.2829H241.45C241.862 47.8263 244.611 37.0799 244.748 36.2552Z" fill="#003671"/>
<path d="M226.224 59.3971C226.273 57.8562 225.84 56.3385 224.987 55.0546C223.412 53.232 221.199 52.0814 218.803 51.8389C224.158 50.825 228.37 46.678 229.467 41.3398C229.639 40.6012 229.722 39.8446 229.714 39.0861C229.735 37.666 229.414 36.2617 228.78 34.991C227.103 31.9678 224.63 30.0988 217.511 30.0988H199.674L188.021 75.7504H205.968C216.962 75.7504 223.585 71.4077 225.757 62.8052C226.061 61.6945 226.218 60.5487 226.224 59.3971ZM221.167 42.1919C220.188 46.3411 216.317 49.1473 212.069 48.7881H202.972C203.384 47.4414 205.968 37.0799 206.133 36.2552H215.23C217.252 35.9992 219.28 36.6886 220.727 38.1243C221.479 39.3445 221.641 40.839 221.167 42.1919ZM206.463 69.6763H197.668C198.025 68.3295 201.186 55.9341 201.406 55.0546H208.167C211.52 55.0546 215.56 55.302 217.154 57.3632C217.736 58.1575 218.028 59.1281 217.979 60.1118C217.968 60.9574 217.848 61.798 217.621 62.6127C216.742 65.9109 212.894 69.5939 206.463 69.5939V69.6763Z" fill="#003671"/>
<path d="M122.553 55.3295C114.747 55.3295 113.565 52.581 114.912 46.397C116.259 40.213 126.428 0.718018 126.428 0.718018H103.094C103.094 0.718018 92.7047 39.1961 90.6984 48.8156C87.8125 62.0631 94.6011 75.6129 115.434 75.7229C128.654 75.7229 164.906 75.7229 164.906 75.7229L170.403 55.3295H122.553Z" fill="#003671"/>
<path d="M88.5271 16.0817L92.6498 0.718018H39.1102C27.4844 0.718018 19.5139 7.03935 13.7421 16.0817H88.5271Z" fill="url(#paint0_linear_55_312)"/>
<path d="M63.4614 28.6421H10.444C11.1311 37.6845 19.6238 45.7648 32.8163 45.7648H54.584H55.1336H55.5459C57.5669 46.3158 58.7841 48.373 58.2944 50.4097C57.9961 52.0724 56.9941 53.5253 55.5459 54.3949C54.2403 54.9726 52.823 55.2542 51.3958 55.2194H5.49689L0 75.7228H49.7468C70.9646 76.3824 79.9795 65.3061 82.5081 52.2511C84.8992 39.8007 79.1825 28.6421 63.4614 28.6421Z" fill="#003671"/>
<defs>
<linearGradient id="paint0_linear_55_312" x1="13.8524" y1="8.38563" x2="89.2969" y2="8.38563" gradientUnits="userSpaceOnUse">
<stop offset="0.01" stop-color="#0096DC"/>
<stop offset="0.74" stop-color="#003671"/>
</linearGradient>
</defs>
</svg>
